<svg width="128" height="128" viewBox="0 0 128 128" fill="none" xmlns="http://www.w3.org/2000/svg">
  <defs>
    <linearGradient id="wf-bg" x1="18" y1="18" x2="110" y2="110" gradientUnits="userSpaceOnUse">
      <stop stop-color="#2CE58D"/>
      <stop offset="1" stop-color="#2CC7FF"/>
    </linearGradient>
    <linearGradient id="wf-stroke" x1="14" y1="14" x2="114" y2="114" gradientUnits="userSpaceOnUse">
      <stop stop-color="#93FFD5" stop-opacity="0.7"/>
      <stop offset="1" stop-color="#8BDFFF" stop-opacity="0.55"/>
    </linearGradient>
  </defs>

  <rect x="14" y="14" width="100" height="100" rx="28" fill="#0B142A" />
  <rect x="14.75" y="14.75" width="98.5" height="98.5" rx="27.25" stroke="url(#wf-stroke)" stroke-opacity="0.45" stroke-width="1.5" />
  <path d="M29 34C29 31.239 31.239 29 34 29H94C96.761 29 99 31.239 99 34V94C99 96.761 96.761 99 94 99H34C31.239 99 29 96.761 29 94V34Z" fill="url(#wf-bg)" fill-opacity="0.08"/>

  <path d="M36 44H46L52 73L60 52H68L76 73L82 44H92L82 84H73L64 62L55 84H46L36 44Z" fill="url(#wf-bg)"/>
  <path d="M70 44H94V52H78V60H91V68H78V84H70V44Z" fill="url(#wf-bg)"/>
</svg>

