<?xml version="1.0" encoding="UTF-8"?>
<svg id="Camada_1" xmlns="http://www.w3.org/2000/svg" version="1.1" xmlns:xlink="http://www.w3.org/1999/xlink" viewBox="0 0 1000 701.33">
  <!-- Generator: Adobe Illustrator 30.2.1, SVG Export Plug-In . SVG Version: 2.1.1 Build 1)  -->
  <defs>
    <style>
      .st0 {
        fill: url(#Gradiente_sem_nome_2655);
      }

      .st1 {
        fill: url(#Gradiente_sem_nome_2651);
      }

      .st2 {
        fill: url(#Gradiente_sem_nome_265);
      }

      .st3 {
        fill: url(#Gradiente_sem_nome_2654);
      }

      .st4 {
        fill: #1a1a1a;
      }

      .st5 {
        fill: url(#Gradiente_sem_nome_2653);
      }

      .st6 {
        fill: url(#Gradiente_sem_nome_2652);
      }
    </style>
    <linearGradient id="Gradiente_sem_nome_265" data-name="Gradiente sem nome 265" x1="691.25" y1="539.19" x2="449.47" y2="39.64" gradientUnits="userSpaceOnUse">
      <stop offset="0" stop-color="#06527a"/>
      <stop offset=".5" stop-color="#a272ba"/>
      <stop offset="1" stop-color="#cf8d6a"/>
    </linearGradient>
    <linearGradient id="Gradiente_sem_nome_2651" data-name="Gradiente sem nome 265" x1="583.54" y1="591.32" x2="341.76" y2="91.77" xlink:href="#Gradiente_sem_nome_265"/>
    <linearGradient id="Gradiente_sem_nome_2652" data-name="Gradiente sem nome 265" x1="755.47" y1="508.11" x2="513.69" y2="8.56" xlink:href="#Gradiente_sem_nome_265"/>
    <linearGradient id="Gradiente_sem_nome_2653" data-name="Gradiente sem nome 265" x1="469.22" y1="646.65" x2="227.44" y2="147.1" xlink:href="#Gradiente_sem_nome_265"/>
    <linearGradient id="Gradiente_sem_nome_2654" data-name="Gradiente sem nome 265" x1="641.32" y1="563.36" x2="399.54" y2="63.8" xlink:href="#Gradiente_sem_nome_265"/>
    <linearGradient id="Gradiente_sem_nome_2655" data-name="Gradiente sem nome 265" x1="533.87" y1="615.36" x2="292.1" y2="115.8" xlink:href="#Gradiente_sem_nome_265"/>
  </defs>
  <g>
    <path class="st2" d="M526.81,195.41l-53.09-.19c-3.1-.01-7.13-3.14-8.76-5.81l-24.79-40.66c-1.79-2.94-2.03-7.9-.21-10.91l28.97-47.79,61.59-.19,29.07,48.9c1.33,2.24,1.12,6.9-.19,9.11l-24.73,41.48c-1.31,2.19-5.53,6.06-7.86,6.05Z"/>
    <path class="st1" d="M419.6,251.57l-51.56-.06c-3.54,0-7.25-2.12-9.12-5.33l-22.69-38.89c-1.17-2.01-4.62-7.51-3.33-9.86,9.28-17.01,19.35-33.95,29.81-51.02l61.26-.31c11.43,17.35,21.48,34.19,31.3,52.67l-27.77,48.1c-1.24,2.15-5.47,4.69-7.9,4.69Z"/>
    <path class="st6" d="M579.26,251.68c-1.88,0-6.04-2.5-7.24-4.5l-25.49-42.36c-1.79-2.98-1.85-7.57-.11-10.51l26.02-43.78c1.26-2.12,5.51-4.59,7.94-4.58l56.15.19,27.98,45.73c2.82,4.6,2.21,9.05-.45,13.53l-27.3,45.99-57.5.28Z"/>
  </g>
  <g>
    <path class="st5" d="M427.82,537.26c-2.21,3.75-5.65,6.13-9.48,6.11l-56.27-.31-28.09-47.08c-1.38-2.31-1.89-7.15-.55-9.44l28.95-49.57,62.06-.17,28.69,47.86c1.64,2.74,1.28,7.51-.28,10.14l-25.03,42.46Z"/>
    <path class="st3" d="M636.96,543.11l-56.52.22c-2.08,0-6.35-2.32-7.41-4.05l-25.91-42.38c-2.66-4.35-2.43-9.04.22-13.48l27.65-46.36,61.65-.12,28.33,47.02c2.06,3.42,1.83,8.41-.15,11.77l-27.87,47.37Z"/>
    <path class="st0" d="M530.63,598.09l-56.57.46c-2.21.02-6.58-2.51-7.83-4.6l-26.36-44.35c-2.12-3.56-.94-8.29,1.14-11.76l24.3-40.56c1.44-2.4,6-4.65,8.72-4.65l52.3-.03c2,0,6.29,2.61,7.31,4.32l25.8,42.79c1.63,2.7,1.59,7.1-.02,9.82l-28.79,48.56Z"/>
  </g>
  <g>
    <path class="st4" d="M905.18,419.33c-10.64,1.45-19.51,1.58-30.06.49l-.33-65.79c-.04-7.56-2.65-16.4-8.58-20.75-6.96-5.11-16.65-4.46-24,.45-5.17,3.45-10.13,12.32-10.21,20.47l-.66,65.44c-10.64,1.17-19.14,1.21-29.85-.23l-.44-112.84,28.02-.83c1.35,3.49,2.03,6.84,3.26,12.85,8.25-10.18,19.98-15.42,33.5-15.28,14.64.16,27.11,6.45,34.3,20.15,9.63-15.11,25.37-21.22,42.69-19.68,19.73,1.76,35.4,16.3,35.51,37.37l.42,78.2c-10.53,1.75-19.89,1.76-30.27-.02l-.48-68.72c-.07-9.74-5.94-18.46-14.56-20.4-8.98-2.02-19.11.73-23.73,10.08-2.45,4.96-4.28,12.21-4.31,18.07l-.22,60.96Z"/>
    <path class="st4" d="M191.67,311.96l-29.13,104.23c-.48,1.7-3.94,4.39-5.64,4.36l-29.19-.57-22.03-77.24-22.2,77.32-28.89.53c-2.36.04-5.5-3.38-6.11-5.65l-27.7-103.73c-.57-2.12,2.27-5.67,4.07-5.63l26.14.57,18.14,79.83,21.5-79.91,30.51-.1,22.29,80.31,19.25-79.86,23.33-.97c1.03-.04,3.68.67,4.48.92,1.06.34,1.68,3.78,1.18,5.59Z"/>
    <path class="st4" d="M509.21,420.6l-28.66-.4-34.16-44.42-12.12,11.02-1.14,33.06-24.27.68c-2.32.07-5.61-2.91-5.61-5.87v-143.31c0-2.7,3.72-5.63,5.9-5.56l24.51.74.44,86.62,42.17-47.38,26.44-.39,4.71,2.63c1.09.61-.74,4.21-1.87,5.43l-38.27,41.51,45.54,59.82c.79,1.04,1.08,3.74.47,4.2s-3.11,1.64-4.07,1.62Z"/>
    <path class="st4" d="M710.37,362.99c0,33.58-27.22,60.8-60.8,60.8s-60.8-27.22-60.8-60.8,27.22-60.8,60.8-60.8,60.8,27.22,60.8,60.8ZM673.58,383.97c5.56-11.51,5.77-24.65,2.43-36.24-3.47-12.07-13.73-18.69-25.94-18.84-12.19-.15-22.55,6.24-26.21,18.1-3.97,12.85-3.78,27.18,2.93,39,5.04,8.87,14.44,12.41,23.95,12.16,8.91-.23,18.17-4.57,22.82-14.19Z"/>
    <path class="st4" d="M307.5,383.89c-10.58,38.15-53.96,47.59-85.32,32.99-12.02-5.6-20.74-15.51-25.06-27.87-11.62-33.16-2.08-74.42,34.5-83.84,32.94-8.48,70.97,4.27,77.51,41.28,2.2,12.42,1.78,25.13-1.63,37.44ZM273.26,387.47c9.93-14.16,9.63-33.85.67-47.51-9.58-14.6-33.48-15.36-43.76-1.32s-10.32,32.87-1.75,47.09c9.16,15.2,34.12,17.04,44.84,1.75Z"/>
    <path class="st4" d="M563.36,330.11l.18,84.67c0,3.1-3.27,6.2-6.08,6.06l-23.43-1.1-.44-89.82c-7.29,0-11.28-.13-16.7-.96-1.14-8.12-1.03-14.87-.36-22.76l17.62-1.35c-3.31-22.3,10.74-38.8,31.84-39.35,7.91-.21,14.52.02,23.08.48l.12,23.68-16.39.73c-2.51.11-7.02,2.39-8.36,4.39-1.46,2.18-2,7.52-1.57,10.72l26.15.03.16,23.74-25.82.82Z"/>
    <path class="st4" d="M751.28,419.3c-10.12,1.76-19.21,1.78-29.78.23l-.43-112.91c9.41-1.04,17.72-1.03,27.77-.6l2.21,15.29c7.85-12.73,23-20.35,38.54-15.22-.63,9.76,5.03,29.73-7.9,27.21-15.51-3.02-29.87,7.44-29.98,23.87l-.42,62.12Z"/>
    <path class="st4" d="M352.31,419.44l-24.46,1.16c-1.59.08-5.42-2.78-5.42-4.72l-.12-109.49,27.36-.46,2.61,15.76c8.5-13.75,23.02-20.98,39.11-15.78l.05,23.26c0,2.4-6.26,4.14-8.62,3.75-15.84-2.6-29.82,7.99-29.97,24.39l-.55,62.12Z"/>
  </g>
</svg>