<?xml version="1.0" encoding="UTF-8"?>
<svg id="Camada_1" xmlns="http://www.w3.org/2000/svg" version="1.1" xmlns:xlink="http://www.w3.org/1999/xlink" viewBox="0 0 1000 701.33">
  <!-- Generator: Adobe Illustrator 30.2.1, SVG Export Plug-In . SVG Version: 2.1.1 Build 1)  -->
  <defs>
    <style>
      .st0 {
        fill: url(#Gradiente_sem_nome_5044);
      }

      .st1 {
        fill: url(#Gradiente_sem_nome_5045);
      }

      .st2 {
        fill: url(#Gradiente_sem_nome_5041);
      }

      .st3 {
        fill: url(#Gradiente_sem_nome_5042);
      }

      .st4 {
        fill: url(#Gradiente_sem_nome_504);
      }

      .st5 {
        fill: url(#Gradiente_sem_nome_5043);
      }
    </style>
    <linearGradient id="Gradiente_sem_nome_504" data-name="Gradiente sem nome 504" x1="702.15" y1="617.39" x2="447.24" y2="90.7" gradientUnits="userSpaceOnUse">
      <stop offset="0" stop-color="#2b5ca1"/>
      <stop offset=".07" stop-color="#4a61a7"/>
      <stop offset=".2" stop-color="#796ab1"/>
      <stop offset=".3" stop-color="#966fb7"/>
      <stop offset=".35" stop-color="#a272ba"/>
      <stop offset=".51" stop-color="#9f71b9"/>
      <stop offset=".62" stop-color="#956fb7"/>
      <stop offset=".73" stop-color="#856cb4"/>
      <stop offset=".82" stop-color="#6f68af"/>
      <stop offset=".91" stop-color="#5263a9"/>
      <stop offset=".99" stop-color="#2f5ca1"/>
      <stop offset="1" stop-color="#2b5ca1"/>
    </linearGradient>
    <linearGradient id="Gradiente_sem_nome_5041" data-name="Gradiente sem nome 504" x1="588.58" y1="672.35" x2="333.68" y2="145.66" xlink:href="#Gradiente_sem_nome_504"/>
    <linearGradient id="Gradiente_sem_nome_5042" data-name="Gradiente sem nome 504" x1="769.85" y1="584.62" x2="514.94" y2="57.93" xlink:href="#Gradiente_sem_nome_504"/>
    <linearGradient id="Gradiente_sem_nome_5043" data-name="Gradiente sem nome 504" x1="468.06" y1="608.38" x2="213.15" y2="81.69" xlink:href="#Gradiente_sem_nome_504"/>
    <linearGradient id="Gradiente_sem_nome_5044" data-name="Gradiente sem nome 504" x1="649.51" y1="520.56" x2="394.6" y2="-6.12" xlink:href="#Gradiente_sem_nome_504"/>
    <linearGradient id="Gradiente_sem_nome_5045" data-name="Gradiente sem nome 504" x1="536.23" y1="575.39" x2="281.32" y2="48.7" xlink:href="#Gradiente_sem_nome_504"/>
  </defs>
  <g>
    <path class="st4" d="M528.77,254.93l-55.98-.2c-3.27-.01-7.52-3.31-9.24-6.12l-26.13-42.87c-1.89-3.1-2.14-8.32-.22-11.5l30.54-50.38,64.94-.2,30.65,51.56c1.4,2.36,1.18,7.27-.2,9.6l-26.08,43.73c-1.38,2.31-5.83,6.39-8.29,6.38Z"/>
    <path class="st2" d="M415.75,314.15l-54.36-.06c-3.73,0-7.64-2.23-9.62-5.62l-23.92-41c-1.24-2.12-4.87-7.92-3.51-10.39,9.79-17.94,20.4-35.79,31.43-53.79l64.58-.32c12.05,18.29,22.65,36.04,33,55.53l-29.28,50.72c-1.31,2.27-5.76,4.94-8.33,4.94Z"/>
    <path class="st3" d="M584.08,314.26c-1.98,0-6.36-2.64-7.63-4.74l-26.87-44.66c-1.89-3.14-1.95-7.98-.11-11.08l27.43-46.16c1.33-2.24,5.81-4.83,8.37-4.83l59.2.2,29.5,48.22c2.97,4.85,2.33,9.54-.47,14.27l-28.79,48.49-60.63.29Z"/>
  </g>
  <g>
    <path class="st5" d="M424.41,493.05c-2.33,3.96-5.96,6.46-10,6.44l-59.33-.33-29.61-49.63c-1.45-2.43-2-7.53-.58-9.95l30.53-52.27,65.43-.18,30.25,50.46c1.73,2.89,1.35,7.91-.29,10.69l-26.39,44.77Z"/>
    <path class="st0" d="M644.91,499.22l-59.59.23c-2.19,0-6.7-2.44-7.81-4.27l-27.32-44.68c-2.81-4.59-2.57-9.54.23-14.22l29.16-48.88,65-.12,29.87,49.58c2.17,3.6,1.93,8.87-.15,12.41l-29.38,49.95Z"/>
    <path class="st1" d="M532.81,557.18l-59.65.49c-2.33.02-6.94-2.64-8.25-4.85l-27.8-46.76c-2.23-3.76-.99-8.74,1.2-12.39l25.62-42.77c1.52-2.53,6.33-4.9,9.19-4.9l55.14-.03c2.11,0,6.63,2.75,7.71,4.55l27.2,45.11c1.72,2.85,1.67,7.49-.03,10.35l-30.35,51.19Z"/>
  </g>
</svg>